<?xml version="1.0" encoding="UTF-8"?>
<svg version="1.2" baseProfile="tiny-ps" xmlns="http://www.w3.org/2000/svg" viewBox="0 0 1000 1000">
<title>Instalyzer</title>
<rect width="1000" height="1000" fill="#171d25"/>
<g transform="translate(33.841 66.633) scale(1.285956)">
<g transform="translate(0.000000,700.000000) scale(0.333333,-0.333333)" fill="#4384ee">
<path d="M996 1581 c-408 -43 -619 -518 -376 -846 l15 -19 64 -1 c41 0 71 -1
83 -4 29 -6 32 -4 12 12 -98 73 -158 197 -159 326 -1 306 315 507 593 377 l29
-14 42 42 c50 49 51 42 -13 73 -94 46 -190 64 -290 54z M1446 1310 l-40 -41
17 -35 c83 -175 41 -379 -102 -499 l-22 -19 13 -11 c16 -13 53 -50 62 -63 l8
-10 22 19 c185 160 233 444 111 660 -27 48 -20 48 -69 -1z M999 1302 c-210
-38 -282 -302 -118 -439 146 -123 372 -38 405 152 7 38 0 108 -11 120 -2 2
-116 -114 -144 -146 -60 -69 -178 -22 -178 72 0 45 1 47 98 144 81 82 81 82
72 85 -31 12 -90 18 -124 12z M1785 943 c0 -374 0 -366 -16 -415 -32 -92 -112
-169 -207 -196 -33 -10 -937 -13 -989 -4 -127 23 -224 116 -253 244 -6 25 -6
39 -7 192 l-1 165 -25 4 c-29 4 -49 13 -70 32 l-16 13 0 -193 c0 -156 1 -197
4 -218 32 -178 159 -310 338 -350 51 -11 955 -15 1010 -4 152 30 279 140 325
284 20 63 19 43 20 352 l1 281 -13 9 c-35 27 -67 74 -97 142 -3 6 -4 -83 -4
-338z"/>
</g>
<g transform="translate(0.000000,700.000000) scale(0.333333,-0.333333)" fill="#74bcef">
<path d="M1698 1972 c-8 -3 -13 -9 -100 -103 -144 -155 -129 -128 -128 -230
l2 -75 -185 -183 c-101 -100 -206 -204 -233 -230 -53 -53 -61 -64 -61 -89 0
-46 50 -77 91 -57 8 4 60 54 149 142 75 75 180 178 233 231 l96 95 76 -2 c98
-2 80 -11 198 95 140 125 141 127 137 145 -6 24 -16 25 -141 26 l-78 0 -20
-19 c-11 -10 -48 -46 -83 -81 -63 -62 -69 -67 -74 -54 -2 4 20 28 79 86 54
55 81 84 83 90 3 15 -1 192 -5 200 -5 10 -25 17 -36 13z M582 1893 c-160 -14
-308 -132 -360 -288 -20 -60 -19 -43 -20 -348 l-1 -278 16 -14 c23 -21 85 -43
94 -34 0 0 1 120 1 266 1 146 2 279 3 296 9 122 88 227 201 268 51 19 25 18
502 18 l437 0 46 52 c44 48 47 52 40 54 -4 2 -144 4 -342 5 -185 2 -395 3
-465 4 -71 0 -140 0 -152 -1z M1835 1510 l-50 -44 0 -88 c0 -97 0 -99 31 -153
20 -36 59 -81 77 -91 10 -5 9 380 -2 415 -2 8 -2 8 -56 -39z M658 715 c-24 -2
-24 -1 12 -38 163 -164 403 -206 611 -107 33 16 93 53 98 60 3 5 -19 32 -45
55 -35 32 -33 32 -58 16 -135 -87 -313 -89 -447 -4 -10 7 -20 11 -33 12 -9 1
-28 4 -40 5 -22 3 -61 3 -98 1z"/>
</g>
</g>
</svg>
